# xmcd
#
# Track frame offsets:
#	150
#	10188
#	21618
#	32383
#	43173
#	53093
#	62153
#	70500
#	82438
#	93725
#	102958
#	112543
#	120113
#	129658
#	141640
#	152545
#	163920
#
# Disc length: 2344 seconds
#
# Revision: 0
# Processed by: cddbd v1.5.2PL0 Copyright (c) Steve Scherf et al.
# Submitted via: dBpowerAMP V4.0
#
DISCID=e4092611
DTITLE=Fats Domino - Fats Domino - The Originals - Vol.  11
DYEAR=1995
DGENRE=R&B
TTITLE0=I Lived My Live - overdubbed
TTITLE1=Oh-Ba-A-By - overdubbed
TTITLE2=Telling Lies - overdubbed
TTITLE3=When I See You - overdubbed
TTITLE4=Darktown Strutters Ball - overdubbed
TTITLE5=Lil' Liza Jane - overdubbed
TTITLE6=Every Night (About This Time) - Version 2
TTITLE7=Troubled In Mind - overdubbed
TTITLE8=Ain't Gonna Do It - overdubbed
TTITLE9=I Can't Give You Anything But Love - overdubbed
TTITLE10=Along The Navajo Trail - overdubbed
TTITLE11=Your Cheatin' Heart - overdubbed
TTITLE12=South Of The Border - overdubbed
TTITLE13=Goin' Home (Tomorrow) - Version 2
TTITLE14=My Blue Heaven - Film Version
TTITLE15=Sick and Tired - extended
TTITLE16=Ain't It A Shame - overdubbed
EXTD=
EXTT0=
EXTT1=
EXTT2=
EXTT3=
EXTT4=
EXTT5=
EXTT6=
EXTT7=
EXTT8=
EXTT9=
EXTT10=
EXTT11=
EXTT12=
EXTT13=
EXTT14=
EXTT15=
EXTT16=
PLAYORDER=
